<svg width="200" height="71" viewBox="0 0 200 71" fill="none" xmlns="http://www.w3.org/2000/svg">
<g clip-path="url(#clip0_1_141)">
<path d="M99.5492 1.24734L91.0997 11.0691L90.9668 11.2235L90.7776 11.2221L78.751 11.1333L78.8284 24.9343L78.8296 25.1514L78.695 25.304L70.1361 35.0001L78.695 44.696L78.8296 44.8486L78.8284 45.0657L78.751 58.8667L90.7776 58.7779L90.9668 58.7765L91.0997 58.9309L99.5492 68.7527L107.999 58.9309L108.131 58.7765L108.321 58.7779L120.347 58.8667L120.27 45.0657L120.269 44.8486L120.403 44.696L128.962 35.0001L120.403 25.304L120.269 25.1514L120.27 24.9343L120.347 11.1333L108.321 11.2221L108.131 11.2235L107.999 11.0691L99.5492 1.24734V1.24734Z" stroke="black" stroke-width="1.02941"/>
<path d="M109.004 26.9922C108.92 26.6619 108.511 26.683 108.467 27.0234C108.212 29.0181 109.685 33.7355 109.159 35.9184C109.155 35.9325 109.152 35.9466 109.148 35.9607C109.034 36.4295 108.433 36.3376 108.428 35.8512C108.411 33.9655 107.978 31.9035 107.05 30.6408C103.555 25.8833 107.288 22.3732 107.15 21.2354C107.131 21.081 107.002 20.9935 106.873 21.0431C106.868 21.0454 106.864 21.0467 106.863 21.048C106.64 21.1888 106.43 21.3599 106.222 21.5261C104.823 22.6416 103.542 23.9835 102.803 25.7905C102.377 26.8295 102.265 27.9889 102.022 29.0916C101.929 29.5112 101.822 29.9264 101.698 30.3354C101.559 30.7942 101.364 31.2548 101.055 31.5947C100.917 31.7465 100.748 31.8586 100.56 31.9004C100.069 32.0096 99.8095 31.6181 99.716 31.1575C99.4561 29.8771 99.6469 28.5844 99.7444 27.2957C100.136 22.1071 95.2061 21.6242 97.0076 14.0588C97.4852 12.0535 91.0339 18.643 93.2072 24.3764C93.6323 25.4975 93.5931 26.5673 93.111 27.6485C92.5973 28.799 91.9657 29.8411 91.6541 31.1012C91.5421 31.5543 91.4793 32.0126 91.4298 32.4785C91.3662 33.0775 91.518 33.9779 90.828 34.1335C90.5421 34.1982 90.1457 34.1626 89.9089 33.9479C89.7238 33.7799 89.6214 33.5183 89.5605 33.2565C89.275 32.0328 89.3102 30.7951 89.4459 29.546C89.5651 28.4464 89.6487 26.3751 88.6521 28.4423C85.4412 35.103 85.5561 43.3991 89.4762 49.6488C90.9833 52.0518 92.8956 53.5834 95.3978 54.2831C100.485 55.7056 106.569 55.275 109.772 50.259C110.995 48.3429 111.73 46.003 112.211 43.7113C112.825 40.7836 112.942 38.0025 111.981 35.1615C111.049 32.4045 109.732 29.8419 109.004 26.9922Z" fill="black"/>
</g>
<path d="M168.156 27.5C172.575 27.5 176.156 31.0817 176.156 35.5C176.156 39.9183 172.575 43.5 168.156 43.5C163.738 43.5 160.156 39.9183 160.156 35.5C160.156 31.0817 163.738 27.5 168.156 27.5Z" fill="#8B83F6" stroke="black"/>
<path d="M30.1562 27.5C34.5745 27.5 38.1562 31.0817 38.1562 35.5C38.1562 39.9183 34.5745 43.5 30.1562 43.5C25.738 43.5 22.1562 39.9183 22.1562 35.5C22.1562 31.0817 25.738 27.5 30.1562 27.5Z" fill="#FB4B4D" stroke="black"/>
<defs>
<clipPath id="clip0_1_141">
<rect width="61" height="70" fill="white" transform="translate(68.6562)"/>
</clipPath>
</defs>
</svg>
