<svg width="698" height="425" viewBox="0 0 698 425" fill="none" xmlns="http://www.w3.org/2000/svg">
<g clip-path="url(#clip0_1_166)">
<path d="M167.802 322.848C167.802 382.733 148.849 403.404 94.1088 403.404C39.3707 403.404 20.4063 382.733 20.4063 322.848V26.0587H46.721V293.164C46.721 318.073 60.4113 328.14 94.0986 328.14C127.786 328.14 141.476 318.073 141.476 293.164V26.0587H167.802V322.848ZM264.292 397.048H190.599V321.794H264.292C303.242 321.794 311.669 311.727 311.669 286.818V26.0587H337.995V316.481C337.995 375.85 324.832 397.048 264.292 397.048ZM433.426 397.048H359.734V321.794H433.426C472.376 321.794 480.804 311.727 480.804 286.818V26.0587H507.129V316.481C507.118 375.85 493.955 397.048 433.426 397.048ZM603.155 403.405C542.615 403.405 529.463 382.207 529.463 322.849V100.259C529.463 40.9016 542.626 19.7027 603.155 19.7027C663.695 19.7027 676.847 40.9008 676.847 100.259V322.849C676.847 382.207 663.695 403.405 603.155 403.405ZM603.155 94.9576C564.205 94.9576 555.777 105.024 555.777 129.933V293.164C555.777 318.073 564.205 328.14 603.155 328.14C642.105 328.14 650.532 318.073 650.532 293.164V129.944C650.532 105.035 642.105 94.9568 603.155 94.9568V94.9576Z" fill="black"/>
</g>
<g clip-path="url(#clip1_1_166)">
<path d="M623.468 162.134H525.13C524.83 162.134 524.535 162.063 524.268 161.927C524 161.792 523.769 161.595 523.591 161.354L499.285 128.213C486.704 111.073 475.641 99.3765 466.387 93.4572C461.619 90.3992 455.237 88.0905 447.435 86.5846C439.806 85.1193 430.541 84.3723 419.922 84.3723H404.188C402.855 84.3723 401.922 85.7054 402.399 86.9637L402.8 88.026L411.447 111.009L411.642 111.519C411.78 111.882 412.025 112.195 412.344 112.415C412.664 112.636 413.043 112.754 413.431 112.754H432.351C447.424 112.754 459.007 114.347 466.756 117.492C474.384 120.581 482.727 128.007 491.581 139.553L506.459 159.044C507.423 160.303 506.524 162.123 504.942 162.123H72.9166C72.4081 162.124 71.9207 162.326 71.5611 162.686C71.2015 163.046 70.9991 163.533 70.9983 164.042V184.835C70.9993 185.344 71.2018 185.831 71.5614 186.191C71.9209 186.55 72.4083 186.753 72.9166 186.753H177.701C178.189 186.753 178.655 186.938 179.002 187.263C186.328 194.148 190.033 201.161 190.033 208.121C190.033 216.512 186.425 222.539 179.013 226.572C171.168 230.844 156.907 233.098 136.622 233.283L135.322 233.294C133.88 233.304 132.97 234.844 133.653 236.112L134.27 237.262L145.215 257.675L145.442 258.109C145.61 258.421 145.861 258.68 146.167 258.858C146.473 259.036 146.822 259.126 147.176 259.117L147.664 259.106C160.407 258.77 171.297 256.981 180.075 253.783C180.389 253.669 180.728 253.64 181.057 253.699C181.386 253.758 181.694 253.903 181.95 254.119C186.641 258.033 190.261 262.325 192.72 266.911C195.516 272.093 196.925 277.849 196.925 283.986C196.925 291.834 194.01 297.927 188.029 302.611C181.841 307.456 174.895 309.82 166.778 309.82C158.533 309.82 150.21 306.427 142.062 299.748C133.642 292.854 124.529 281.655 115.004 266.467L94.4589 233.868L94.0578 233.229C93.795 232.811 93.3809 232.511 92.902 232.392C92.4232 232.273 91.9169 232.343 91.489 232.589L90.8395 232.968L85.1608 236.221L84.446 236.601C84.2226 236.729 84.0273 236.901 83.8719 237.106C83.7164 237.312 83.604 237.546 83.5413 237.796C83.4786 238.046 83.4669 238.306 83.5069 238.561C83.5469 238.815 83.6378 239.059 83.7742 239.278L84.2072 239.972L105.154 273.513C121.18 299.119 133.794 315.023 143.72 322.146C153.689 329.3 164.319 332.933 175.307 332.933C187.844 332.933 198.409 329.128 206.71 321.615C215.108 314.037 219.367 304.291 219.367 292.637C219.367 283.477 216.863 274.739 211.944 266.684C207.978 260.201 202.354 254.022 195.191 248.276C194.968 248.098 194.787 247.872 194.662 247.615C194.537 247.358 194.471 247.076 194.469 246.79C194.467 246.505 194.529 246.222 194.65 245.963C194.771 245.704 194.949 245.476 195.17 245.294C198.735 242.357 201.606 238.953 203.751 235.137C206.851 229.608 208.422 223.114 208.422 215.829C208.422 205.833 205.345 197.15 199.233 189.909C198.182 188.662 199.06 186.753 200.685 186.753H454.64C454.892 186.753 455.142 186.802 455.375 186.899C455.608 186.995 455.82 187.136 455.998 187.315C456.176 187.493 456.317 187.705 456.414 187.938C456.51 188.171 456.559 188.421 456.559 188.673V211.623C456.558 212.131 456.355 212.619 455.996 212.979C455.636 213.338 455.149 213.54 454.64 213.541H377.347C375.634 213.541 374.789 215.623 376.003 216.816L377.368 218.171C394.121 234.66 404.079 245.75 406.951 251.127C409.746 256.33 411.166 260.797 411.166 264.397C411.166 269.079 409.758 272.711 406.864 275.487C403.928 278.305 400.211 279.671 395.486 279.671C388.93 279.671 381.107 275.465 372.264 267.15C365.264 260.58 357.831 249.501 350.169 234.226L350.148 234.183L341.392 215.113L341.186 214.659C341.035 214.326 340.791 214.043 340.484 213.845C340.176 213.647 339.818 213.541 339.453 213.541H266.959C265.247 213.541 264.401 215.623 265.615 216.816L266.992 218.171C283.744 234.66 293.702 245.75 296.574 251.127C299.37 256.33 300.789 260.797 300.789 264.397C300.789 269.079 299.38 272.711 296.488 275.487C293.55 278.305 289.834 279.671 285.109 279.671C278.554 279.671 270.73 275.465 261.888 267.15C252.785 258.607 243.011 242.519 232.847 219.352L232.489 218.528C232.379 218.279 232.217 218.057 232.014 217.875C231.812 217.694 231.573 217.558 231.314 217.476C231.054 217.394 230.781 217.368 230.51 217.4C230.24 217.432 229.98 217.521 229.747 217.661L228.978 218.116L223.571 221.369L223.019 221.705C222.638 221.932 222.348 222.284 222.2 222.702C222.052 223.119 222.054 223.576 222.206 223.992L222.422 224.6C231.243 249.317 241.559 268.993 253.089 283.075C258.951 290.252 265.008 295.727 271.077 299.358C277.297 303.076 283.701 304.963 290.116 304.963C300.453 304.963 309.123 301.537 315.884 294.773C322.635 288.019 326.07 279.433 326.07 269.264C326.07 263.702 324.434 257.827 321.215 251.799C319.374 248.341 316.978 244.774 314.053 241.142C313.045 239.896 313.934 238.031 315.538 238.031H336.635C337.405 238.031 338.109 238.498 338.401 239.213C345.857 257.143 354.276 271.887 363.444 283.086C369.306 290.263 375.364 295.737 381.432 299.369C387.652 303.088 394.067 304.974 400.482 304.974C410.819 304.974 419.488 301.548 426.25 294.783C433.011 288.029 436.436 279.444 436.436 269.274C436.436 263.713 434.8 257.838 431.592 251.81C429.75 248.352 427.345 244.785 424.43 241.142C423.422 239.896 424.31 238.031 425.914 238.031H454.64C454.892 238.03 455.142 238.08 455.375 238.176C455.608 238.272 455.82 238.414 455.998 238.592C456.176 238.77 456.317 238.982 456.414 239.215C456.51 239.448 456.559 239.698 456.559 239.95V321.246C456.559 321.723 456.743 322.189 457.068 322.547L457.274 322.774L472.953 339.806L473.192 340.066C473.561 340.456 474.07 340.684 474.601 340.684H481.416C481.925 340.683 482.412 340.48 482.772 340.121C483.131 339.761 483.334 339.274 483.335 338.765V188.694C483.336 188.186 483.538 187.698 483.897 187.339C484.257 186.979 484.744 186.777 485.252 186.776H510.501C511.009 186.777 511.496 186.979 511.856 187.339C512.215 187.698 512.418 188.186 512.418 188.694V319.468C512.418 319.923 512.582 320.368 512.885 320.715L513.08 320.943L529.302 339.73L529.54 340.001C529.897 340.423 530.428 340.662 530.981 340.662H537.103C537.612 340.661 538.099 340.459 538.459 340.099C538.818 339.739 539.021 339.252 539.022 338.743V188.673C539.023 188.164 539.225 187.677 539.584 187.317C539.944 186.957 540.431 186.755 540.939 186.753H624.28C624.789 186.753 625.276 186.55 625.635 186.191C625.995 185.831 626.197 185.344 626.198 184.835V164.042C626.197 163.534 625.995 163.046 625.636 162.686C625.276 162.326 624.789 162.124 624.28 162.123L623.468 162.134Z" fill="#FFFCF7" stroke="black" stroke-width="2.6806" stroke-miterlimit="10"/>
</g>
<defs>
<clipPath id="clip0_1_166">
<rect width="657" height="384" fill="white" transform="translate(20.4062 19.6875)"/>
</clipPath>
<clipPath id="clip1_1_166">
<rect width="558" height="259" fill="white" transform="translate(69.4062 82.6875)"/>
</clipPath>
</defs>
</svg>
